<svg id="svg2" xmlns="http://www.w3.org/2000/svg" viewBox="0 0 738.61 378.31"><defs><style>.cls-1{isolation:isolate;font-size:192.5px;font-family:Roboto-Thin, Roboto;}.cls-2{letter-spacing:-0.01em;}.cls-3{letter-spacing:-0.04em;}</style></defs><title>logo_small_text</title><text class="cls-1" transform="translate(0 326.15)"><tspan class="cls-2">U</tspan><tspan class="cls-3" x="126.23" y="0">A</tspan><tspan x="233.01" y="0">Vs@B</tspan></text><g id="g3530"><path id="path3532" d="M747.6,62.33H569.91c9.2,5.66,39.65,13.44,88.49,13.44C708,75.78,739.1,68,747.6,62.33Z" transform="translate(-30.7 -48.07)"/><path id="path3534" d="M661.93,52.31a4.25,4.25,0,0,0-8.49,0v5h8.49Z" transform="translate(-30.7 -48.07)"/><path id="path3536" d="M230.09,62.16H52.4C61.6,67.82,92,75.6,141.6,75.6c48.85,0,80-7.07,88.5-13.44Z" transform="translate(-30.7 -48.07)"/><path id="path3538" d="M458.76,148.59l12-34.67H631.5l16.28,38.21s2.12,7.07,16.28,7.07,22.65-26.88,22.65-41c0-9.2-13.45-13.44-24.07-15.56V79.26h-8.49V101.9a32.09,32.09,0,0,0-5.66-.71H494.15l-17-30.43a10.79,10.79,0,0,0-7.79-4.24H427.61c-7.79-7.07-17-12-27.61-12s-20.53,5-27.61,12H330.62a10.79,10.79,0,0,0-7.79,4.24l-17,30.43H152.22a32.09,32.09,0,0,0-5.66.71V79.26h-9.2v24.05c-11.33,2.12-24.77,6.37-24.77,14.86,0,14.86,9.2,41,22.65,41s16.28-7.07,16.28-7.07l16.28-38.21H328.5l12,34.67" transform="translate(-30.7 -48.07)"/><path id="path3540" d="M146.56,53.55a4.25,4.25,0,0,0-8.49,0V57.8h8.49V53.55Z" transform="translate(-30.7 -48.07)"/><rect id="rect3542" x="309.81" y="102.55" width="118.28" height="4.2"/></g></svg>