<?xml version="1.0" standalone="no"?>
<!DOCTYPE svg PUBLIC "-//W3C//DTD SVG 20010904//EN"
 "http://www.w3.org/TR/2001/REC-SVG-20010904/DTD/svg10.dtd">
<svg version="1.0" xmlns="http://www.w3.org/2000/svg"
 width="1000.000000pt" height="1000.000000pt" viewBox="0 0 1000.000000 1000.000000"
 preserveAspectRatio="xMidYMid meet">
<metadata>
Created by potrace 1.11, written by Peter Selinger 2001-2013
</metadata>
<g transform="translate(0.000000,1000.000000) scale(0.100000,-0.100000)"
fill="#000000" stroke="none">
<path d="M8540 5750 c-13 -13 -20 -33 -20 -60 l0 -40 58 0 58 0 -4 43 c-7 71
-50 99 -92 57z"/>
<path d="M1387 5732 c-10 -10 -17 -35 -17 -55 l0 -37 55 0 55 0 0 33 c0 65
-56 101 -93 59z"/>
<path d="M4905 5670 c-89 -18 -222 -87 -270 -140 -17 -19 -30 -20 -325 -20
-302 0 -308 0 -340 -22 -25 -17 -64 -78 -154 -240 l-121 -218 -1092 0 c-600 0
-1098 -3 -1107 -6 -14 -5 -16 12 -16 155 l0 161 -60 0 -60 0 0 -168 0 -167
-87 -23 c-113 -29 -206 -74 -235 -115 -19 -26 -23 -44 -22 -97 5 -215 140
-491 260 -530 50 -17 137 -5 201 26 61 29 56 20 204 372 l93 222 1120 -2 1119
-3 81 -237 81 -238 820 0 820 0 32 93 c18 50 56 158 84 240 l51 147 1118 0
1117 0 113 -267 c63 -148 120 -278 127 -290 32 -49 178 -87 253 -64 66 20 125
82 175 185 56 115 87 237 89 343 1 80 0 82 -34 118 -46 48 -95 73 -205 105
l-90 26 -3 162 -2 162 -55 0 -55 0 0 -157 0 -158 -1107 3 c-662 1 -1111 6
-1117 12 -5 5 -61 102 -125 217 -88 156 -124 213 -150 230 -34 23 -38 23 -337
23 l-303 0 -63 48 c-135 101 -281 140 -423 112z"/>
<path d="M210 5560 c61 -40 356 -107 591 -134 653 -76 1536 -13 1795 127 26
15 -76 16 -1186 16 -803 1 -1210 -3 -1200 -9z"/>
<path d="M7390 5560 c30 -20 203 -70 322 -94 597 -119 1523 -94 1981 54 50 17
99 34 107 40 10 6 -399 10 -1205 10 -806 0 -1215 -4 -1205 -10z"/>
<path d="M4180 4318 l0 -28 815 0 815 0 0 25 0 25 -815 2 -815 3 0 -27z"/>
</g>
</svg>
